<svg width="100" height="100" viewBox="0 0 26.458 26.458" xmlns="http://www.w3.org/2000/svg"><path d="M733.141 738.573c4.451 2.532 6.858 8.124 8.709 12.667l.416 1.002c.866 2.222 1.482 4.476 2.033 6.792.066.277.133.554.2.84 3.105 13.583-.42 27.672-7.003 39.66l-.75 1.41c-1.966 3.586-4.282 6.832-6.771 10.07l-.801 1.044a129 129 0 0 1-2.366 2.914l-.509.616c-2.748 3.318-5.674 6.43-8.72 9.478l-1.002 1.003a109 109 0 0 1-5.999 5.528l-1.368 1.185c-5.613 4.83-11.38 9.468-17.212 14.03a416 416 0 0 0-6.767 5.432 298 298 0 0 1-5.207 4.143 175 175 0 0 0-6.02 4.935 170 170 0 0 1-4.685 3.84 526 526 0 0 0-4.115 3.323l-8.192 6.66q-1.317 1.071-2.641 2.13c-6.081 4.892-11.817 10.318-16.629 16.47l-.988 1.208c-5.056 6.247-8.15 12.776-7.324 20.96 1.847 9.919 9.868 17.345 17.417 23.354q1.065.877 2.127 1.757c2.037 1.668 4.115 3.273 6.207 4.87l1.166.895 1.141.759c.838.824.838.824 1.066 2.005-.286 1.5-.72 1.906-1.885 2.876l-1.1.925a259 259 0 0 1-4.99 3.881 202 202 0 0 0-3.472 2.701q-1.38 1.092-2.768 2.173-.649.505-1.294 1.013-.879.684-1.765 1.356l-1.003.772c-1.118.634-1.663.662-2.93.54-.761-.434-.761-.434-1.485-1.046l-.82-.684-.862-.745-.9-.76a183 183 0 0 1-7.809-7.058l-1.044-.98c-2.718-2.62-5.01-5.505-7.269-8.52l-.765-1.011c-8.909-12.222-12.486-26.787-10.243-41.751 2.056-10.765 7.396-20.302 14.57-28.49l.831-.962c3.42-3.885 7.088-7.579 11.045-10.914l1.271-1.096a325 325 0 0 1 7.429-6.243 690 690 0 0 0 3.576-2.935c8.936-7.373 8.936-7.373 13.43-10.879 2.968-2.316 5.866-4.716 8.766-7.117q1.539-1.27 3.084-2.532l1.027-.84 2.053-1.672a491 491 0 0 0 7.793-6.505q1.613-1.37 3.23-2.734l1.287-1.09q1.278-1.082 2.558-2.162 1.61-1.36 3.217-2.724a791 791 0 0 1 1.99-1.677c7.37-6.225 14.346-12.832 20.042-20.65l.72-.964c5.97-8.214 9.858-17.211 12.244-27.043l.238-.976c1.246-5.368 1.625-10.746 1.852-16.23q.055-1.281.123-2.561l.066-1.514c.21-1.482.608-2.482 1.383-3.756 1.116-.558 1.93-.499 3.166-.396" fill="#22c55e" style="fill:#22c55e;stroke-width:.395847" transform="matrix(.17312 0 0 .07682 -102.626 -56.733)"/><path d="M694.32 852.603a27 27 0 0 1 2.598 2.103l.732.65q1.111.991 2.212 1.998l1.307 1.173c2.27 2.05 4.468 4.164 6.61 6.348l.953.95c7.404 7.426 13.878 16.445 16.464 26.759l.23.882c2.05 8.138 2.282 17.092.166 25.244l-.238.945c-1.227 4.748-2.913 9.03-5.304 13.305l-.4.74c-4.894 9.013-12.515 16.774-20.58 23.011q-1.15.934-2.293 1.874a288 288 0 0 1-7.858 6.2c-2.362 1.818-4.655 3.723-6.963 5.608q-1.333 1.083-2.678 2.152a490 490 0 0 0-4.228 3.414 549 549 0 0 1-8.947 7.138q-1.726 1.351-3.45 2.709l-4.213 3.307a2435 2435 0 0 0-4.1 3.224l-1.047.825c-5.371 4.26-10.645 8.702-15.372 13.678-.603.54-.603.54-1.394.54l-.283.678c-.625 1.112-1.39 1.833-2.315 2.711-1.766 1.728-3.332 3.537-4.87 5.468a51 51 0 0 1-2.33 2.647c-12.19 13.62-19.022 30.708-20.806 48.752-.338 1.363-.87 2.088-1.856 3.079-1.512.175-2.346-.069-3.556-1-2.596-2.621-3.872-5.898-5.152-9.292l-.409-1.08c-4.812-14.387-.893-31.246 5.555-44.442 6.54-12.78 16.816-24.563 27.758-33.808.902-.767 1.773-1.565 2.648-2.363 2.077-1.873 4.232-3.636 6.407-5.393l1.503-1.23a334 334 0 0 1 8.707-6.902c2.057-1.57 4.084-3.178 6.116-4.78a729 729 0 0 1 2.055-1.61 494 494 0 0 0 8.157-6.524 300 300 0 0 1 5.105-4.066c2.412-1.88 4.774-3.818 7.13-5.767a373 373 0 0 1 7.333-5.912c2.067-1.633 4.05-3.33 5.996-5.106.856-.777 1.724-1.535 2.6-2.29q.756-.666 1.509-1.336l.686-.606c4.784-4.476 8.598-10.984 8.913-17.604.094-4.172-.442-7.731-2.227-11.503l-.41-.868c-1.639-3.309-3.828-6.166-6.17-9.003l-.847-1.026c-4.466-5.133-9.408-9.99-14.83-14.102a168 168 0 0 1-1.988-1.547l-1.203-.919c-1.177-1.287-1.376-2.048-1.32-3.782.676-.869.676-.869 1.73-1.633l1.218-.912.68-.492c1.054-.765 2.086-1.558 3.12-2.35q.85-.652 1.704-1.3a226 226 0 0 0 6.985-5.565c2.771-2.279 2.771-2.279 4.75-1.999" fill="#2b86c1" style="fill:#f755f5;stroke-width:.395847" transform="matrix(.17312 0 0 .07682 -102.626 -56.733)"/><path d="m643.521 912.675 1.492-.007c1.626-.005 3.253.002 4.88.01l3.392-.002q3.556 0 7.111.015 4.105.017 8.21.007 3.956-.006 7.91.004 1.68.003 3.36 0a707 707 0 0 1 4.698.016l1.403-.006c3.126.031 5.036.458 7.385 2.654 1.22 1.9 1.206 2.693.924 4.917-.777 1.8-1.883 2.796-3.478 3.912-1.254.418-2.053.492-3.357.499l-1.28.009-1.402.003-1.478.009q-2.426.012-4.852.018l-1.672.005q-3.93.012-7.857.018-4.53.007-9.061.033-3.928.02-7.855.022-1.669.003-3.338.015-2.335.013-4.67.007l-1.394.017c-3.15-.022-4.594-.541-6.906-2.693-.816-1.589-1.053-3.138-.95-4.918 2.025-4.13 4.54-4.603 8.785-4.565z" fill="#198a42" style="fill:#f755f5;stroke-width:.434677" transform="matrix(.17312 0 0 .07682 -102.626 -56.733)"/><path d="m656.684 891.998.792-.008q1.29-.009 2.58-.01.903-.002 1.804-.006 1.889-.006 3.777-.005 2.412-.002 4.824-.023 1.862-.011 3.724-.009.889 0 1.778-.01c5.772-.05 5.772-.05 8.245 1.65.927 1.072 1.087 1.7 1.266 3.107-.23 1.865-.994 2.958-2.393 4.187-1.47.901-2.756.858-4.443.87q-.397.005-.805.008-1.32.01-2.64.015l-.911.005q-2.39.012-4.777.016-2.464.008-4.928.032-1.898.014-3.795.014-.907.003-1.816.013-1.273.012-2.545.006l-1.462.007c-1.822-.25-2.944-1.05-4.193-2.368-.795-1.412-.69-2.875-.426-4.438.608-1.226 1.43-2 2.66-2.628 1.265-.393 2.359-.416 3.684-.424z" fill="#22c55e" style="stroke-width:.368134" transform="matrix(.17312 0 0 .07682 -102.626 -56.733)"/><text xml:space="preserve" style="font-style:normal;font-variant:normal;font-weight:400;font-stretch:normal;font-size:6.34992px;line-height:0;font-family:&quot;TeX Gyre Chorus&quot;;-inkscape-font-specification:&quot;TeX Gyre Chorus, Normal&quot;;font-variant-ligatures:normal;font-variant-caps:normal;font-variant-numeric:normal;font-variant-east-asian:normal;text-align:start;writing-mode:lr-tb;direction:ltr;text-anchor:start;fill:#f0f;stroke:#f0f;stroke-width:.264995;stroke-linejoin:bevel" x="2.104" y="13.74" transform="rotate(-22.037)"><tspan style="font-style:normal;font-variant:normal;font-weight:400;font-stretch:normal;font-size:6.34992px;font-family:&quot;TeX Gyre Chorus&quot;;-inkscape-font-specification:&quot;TeX Gyre Chorus, Normal&quot;;font-variant-ligatures:normal;font-variant-caps:normal;font-variant-numeric:normal;font-variant-east-asian:normal;stroke-width:.264997;fill:#f0f" x="2.104" y="13.74">event</tspan></text><text xml:space="preserve" style="font-style:normal;font-variant:normal;font-weight:400;font-stretch:normal;font-size:6.34992px;line-height:0;font-family:&quot;TeX Gyre Chorus&quot;;-inkscape-font-specification:&quot;TeX Gyre Chorus, Normal&quot;;font-variant-ligatures:normal;font-variant-caps:normal;font-variant-numeric:normal;font-variant-east-asian:normal;text-align:start;writing-mode:lr-tb;direction:ltr;text-anchor:start;fill:#0f0;stroke:#0f0;stroke-width:.264995;stroke-linejoin:bevel" x="-1.599" y="25.315" transform="rotate(-34.09)"><tspan style="font-style:normal;font-variant:normal;font-weight:400;font-stretch:normal;font-size:6.34992px;font-family:&quot;TeX Gyre Chorus&quot;;-inkscape-font-specification:&quot;TeX Gyre Chorus, Normal&quot;;font-variant-ligatures:normal;font-variant-caps:normal;font-variant-numeric:normal;font-variant-east-asian:normal;stroke-width:.264997;fill:#0f0" x="-1.599" y="25.315">fXr</tspan></text></svg>