<svg viewBox="0 0 100 100"
     xmlns="http://www.w3.org/2000/svg"
     role="img"
     aria-labelledby="title desc">

  <title id="title">Wedding planning dashboard</title>
  <desc id="desc">
    Wedding event management dashboard UI in SVG showing a header, sidebar,
    key metrics, wedding timeline checklist, seating summary, RSVP status, and budget.
  </desc>

  <!-- Background -->
  <rect x="0" y="0" width="100" height="100" rx="3" fill="#fff7f9"/>
  <rect x="1.5" y="1.5" width="97" height="97" rx="2.5"
        fill="white" stroke="#f1c6d3" stroke-width="0.5"/>

  <!-- Header -->
  <rect x="1.5" y="1.5" width="97" height="11" rx="2.5" fill="#6d1b3b"/>
  <text x="4" y="8.2" fill="white" font-size="3.5"
        font-family="system-ui, -apple-system, Segoe UI, sans-serif" font-weight="700">
    Wedding Planner
  </text>
  <text x="4" y="11" fill="#f6d5e0" font-size="2.2"
        font-family="system-ui, -apple-system, Segoe UI, sans-serif">
    Overview 路 24 Jun 2026
  </text>

  <!-- Header right: subtle icons + initials -->
  <path d="M83.2 7.2c0-1.1.9-2 2-2s2 .9 2 2-.9 2-2 2-2-.9-2-2Z"
        fill="none" stroke="#f6d5e0" stroke-width="0.6"/>
  <path d="M88.6 8.6h3.6" stroke="#f6d5e0" stroke-width="0.6" stroke-linecap="round"/>
  <circle cx="94" cy="7" r="2.2" fill="#a13a61"/>
  <text x="94" y="7.8" text-anchor="middle" fill="white" font-size="2.4"
        font-family="system-ui, sans-serif" font-weight="700">
    E &amp; J
  </text>

  <!-- Sidebar -->
  <rect x="1.5" y="12.5" width="18" height="86" fill="#fff0f5" stroke="#f1c6d3" stroke-width="0.3"/>

  <text x="4" y="18" fill="#9a4a68" font-size="2.2"
        font-family="system-ui, sans-serif" font-weight="700">
    PLANNING
  </text>

  <!-- Active item -->
  <rect x="2.5" y="20" width="16" height="6" rx="1.5" fill="#ffe0ea"/>
  <circle cx="4.5" cy="23" r="0.9" fill="#d6336c"/>
  <text x="6.2" y="24" fill="#b4235a" font-size="2.4"
        font-family="system-ui, sans-serif" font-weight="700">
    Overview
  </text>

  <!-- Other items -->
  <text x="4" y="30" fill="#9a4a68" font-size="2.4" font-family="system-ui, sans-serif">Guests</text>
  <text x="4" y="35" fill="#9a4a68" font-size="2.4" font-family="system-ui, sans-serif">Vendors</text>
  <text x="4" y="40" fill="#9a4a68" font-size="2.4" font-family="system-ui, sans-serif">Timeline</text>
  <text x="4" y="45" fill="#9a4a68" font-size="2.4" font-family="system-ui, sans-serif">Seating</text>
  <text x="4" y="50" fill="#9a4a68" font-size="2.4" font-family="system-ui, sans-serif">Budget</text>
  <text x="4" y="55" fill="#9a4a68" font-size="2.4" font-family="system-ui, sans-serif">Notes</text>

  <!-- Sidebar CTA -->
  <rect x="3" y="80" width="14" height="7" rx="1.5" fill="#6d1b3b"/>
  <text x="10" y="84.5" text-anchor="middle" fill="white" font-size="2.3"
        font-family="system-ui, sans-serif" font-weight="700">
    Add task
  </text>

  <!-- Main content area -->
  <rect x="19.5" y="12.5" width="79" height="86"
        fill="#fff7f9" stroke="#f1c6d3" stroke-width="0.3"/>

  <!-- Metric cards -->
  <!-- Days to go -->
  <rect x="21" y="15" width="24" height="14" rx="1.5" fill="white" stroke="#f1c6d3" stroke-width="0.4"/>
  <text x="23" y="19" fill="#9a4a68" font-size="2.4" font-family="system-ui, sans-serif">Days to go</text>
  <text x="23" y="24.6" fill="#6d1b3b" font-size="5.2" font-family="system-ui, sans-serif" font-weight="800">164</text>
  <text x="23" y="28" fill="#d6336c" font-size="2.2" font-family="system-ui, sans-serif">Key dates ahead</text>

  <!-- RSVPs -->
  <rect x="47" y="15" width="24" height="14" rx="1.5" fill="white" stroke="#f1c6d3" stroke-width="0.4"/>
  <text x="49" y="19" fill="#9a4a68" font-size="2.4" font-family="system-ui, sans-serif">RSVPs</text>
  <text x="49" y="24.6" fill="#6d1b3b" font-size="5.2" font-family="system-ui, sans-serif" font-weight="800">86</text>
  <text x="60.5" y="24.6" fill="#9a4a68" font-size="2.6" font-family="system-ui, sans-serif" font-weight="700">/120</text>
  <text x="49" y="28" fill="#10b981" font-size="2.2" font-family="system-ui, sans-serif">52 yes 路 34 pending</text>

  <!-- Budget -->
  <rect x="73" y="15" width="24" height="14" rx="1.5" fill="white" stroke="#f1c6d3" stroke-width="0.4"/>
  <text x="75" y="19" fill="#9a4a68" font-size="2.4" font-family="system-ui, sans-serif">Budget</text>
  <text x="75" y="24.6" fill="#6d1b3b" font-size="4.4" font-family="system-ui, sans-serif" font-weight="800">$12.9k</text>
  <text x="75" y="28" fill="#f59e0b" font-size="2.2" font-family="system-ui, sans-serif">70% allocated</text>

  <!-- Left big: Timeline / checklist -->
  <rect x="21" y="32" width="46" height="46" rx="1.5" fill="white" stroke="#f1c6d3" stroke-width="0.4"/>
  <text x="23" y="37" fill="#6d1b3b" font-size="2.8" font-family="system-ui, sans-serif" font-weight="800">
    Timeline &amp; tasks
  </text>
  <text x="65" y="37" text-anchor="end" fill="#9a4a68" font-size="2.1" font-family="system-ui, sans-serif">
    This month
  </text>

  <!-- Task rows -->
  <g font-family="system-ui, sans-serif">
    <!-- Row 1 (done) -->
    <rect x="22.5" y="39" width="44" height="7" rx="1.2" fill="#fff0f5" stroke="#f1c6d3" stroke-width="0.25"/>
    <circle cx="25.5" cy="42.5" r="1.4" fill="#10b981"/>
    <path d="M24.8 42.6l.6.6 1.2-1.6" fill="none" stroke="white" stroke-width="0.6" stroke-linecap="round" stroke-linejoin="round"/>
    <text x="28.5" y="42.2" fill="#6d1b3b" font-size="2.3" font-weight="700">Book venue</text>
    <text x="28.5" y="44.8" fill="#9a4a68" font-size="1.9">Confirmed 路 Deposit paid</text>

    <!-- Row 2 (in progress) -->
    <rect x="22.5" y="47" width="44" height="7" rx="1.2" fill="white" stroke="#f1c6d3" stroke-width="0.25"/>
    <circle cx="25.5" cy="50.5" r="1.4" fill="#f59e0b"/>
    <text x="28.5" y="50.2" fill="#6d1b3b" font-size="2.3" font-weight="700">Finalize guest list</text>
    <text x="28.5" y="52.8" fill="#9a4a68" font-size="1.9">Waiting on 12 addresses</text>

    <!-- Row 3 (up next) -->
    <rect x="22.5" y="55" width="44" height="7" rx="1.2" fill="white" stroke="#f1c6d3" stroke-width="0.25"/>
    <circle cx="25.5" cy="58.5" r="1.4" fill="#d6336c"/>
    <text x="28.5" y="58.2" fill="#6d1b3b" font-size="2.3" font-weight="700">Send invitations</text>
    <text x="28.5" y="60.8" fill="#9a4a68" font-size="1.9">Print proof due Fri</text>

    <!-- Row 4 (up next) -->
    <rect x="22.5" y="63" width="44" height="7" rx="1.2" fill="white" stroke="#f1c6d3" stroke-width="0.25"/>
    <circle cx="25.5" cy="66.5" r="1.4" fill="#d6336c"/>
    <text x="28.5" y="66.2" fill="#6d1b3b" font-size="2.3" font-weight="700">Tasting</text>
    <text x="28.5" y="68.8" fill="#9a4a68" font-size="1.9">Caterer shortlist: 2</text>

    <!-- Progress bar -->
    <text x="23" y="74.5" fill="#9a4a68" font-size="2.1" font-weight="700">Progress</text>
    <rect x="33" y="73.3" width="33" height="2.6" rx="1.3" fill="#fde2e8"/>
    <rect x="33" y="73.3" width="18.5" height="2.6" rx="1.3" fill="#d6336c"/>
    <text x="66" y="75" text-anchor="end" fill="#6d1b3b" font-size="2.1" font-weight="800">56%</text>
  </g>

  <!-- Right top: Seating summary -->
  <rect x="69" y="32" width="29" height="23" rx="1.5" fill="white" stroke="#f1c6d3" stroke-width="0.4"/>
  <text x="71" y="37" fill="#6d1b3b" font-size="2.8" font-family="system-ui, sans-serif" font-weight="800">
    Seating
  </text>
  <text x="71" y="40" fill="#9a4a68" font-size="2" font-family="system-ui, sans-serif">
    Tables 路 layout
  </text>

  <!-- mini seating diagram -->
  <rect x="71" y="42" width="26" height="11" rx="1" fill="#fff0f5" stroke="#f1c6d3" stroke-width="0.3"/>
  <!-- head table -->
  <rect x="72.5" y="43.3" width="9" height="2.2" rx="0.8" fill="#6d1b3b" opacity="0.9"/>
  <text x="77" y="45.1" text-anchor="middle" fill="white" font-size="1.6" font-family="system-ui, sans-serif" font-weight="700">
    Head
  </text>
  <!-- round tables -->
  <circle cx="86" cy="45" r="1.6" fill="white" stroke="#d6336c" stroke-width="0.4"/>
  <circle cx="91" cy="45" r="1.6" fill="white" stroke="#d6336c" stroke-width="0.4"/>
  <circle cx="86" cy="49.5" r="1.6" fill="white" stroke="#d6336c" stroke-width="0.4"/>
  <circle cx="91" cy="49.5" r="1.6" fill="white" stroke="#d6336c" stroke-width="0.4"/>

  <text x="71" y="54.5" fill="#6d1b3b" font-size="2.2" font-family="system-ui, sans-serif" font-weight="800">
    12 tables
  </text>
  <text x="97" y="54.5" text-anchor="end" fill="#9a4a68" font-size="2.2" font-family="system-ui, sans-serif">
    86 seated
  </text>

  <!-- Right bottom: RSVP status -->
  <rect x="69" y="57" width="29" height="24" rx="1.5" fill="white" stroke="#f1c6d3" stroke-width="0.4"/>
  <text x="71" y="62" fill="#6d1b3b" font-size="2.8" font-family="system-ui, sans-serif" font-weight="800">
    RSVP status
  </text>

  <!-- Donut chart -->
  <circle cx="78" cy="71" r="6.2" fill="none" stroke="#fde2e8" stroke-width="2.2"/>
  <!-- yes -->
  <circle cx="78" cy="71" r="6.2" fill="none" stroke="#10b981" stroke-width="2.2"
          stroke-linecap="round"
          stroke-dasharray="22 17" transform="rotate(-90 78 71)"/>
  <!-- pending -->
  <circle cx="78" cy="71" r="6.2" fill="none" stroke="#f59e0b" stroke-width="2.2"
          stroke-linecap="round"
          stroke-dasharray="10 29" transform="rotate(40 78 71)"/>
  <!-- no -->
  <circle cx="78" cy="71" r="6.2" fill="none" stroke="#d6336c" stroke-width="2.2"
          stroke-linecap="round"
          stroke-dasharray="7 32" transform="rotate(125 78 71)"/>

  <text x="78" y="72" text-anchor="middle" fill="#6d1b3b" font-size="2.6"
        font-family="system-ui, sans-serif" font-weight="900">
    86
  </text>
  <text x="78" y="74.4" text-anchor="middle" fill="#9a4a68" font-size="1.8"
        font-family="system-ui, sans-serif">
    total
  </text>

  <!-- Legend -->
  <rect x="85" y="66" width="2.4" height="2.4" rx="0.6" fill="#10b981"/>
  <text x="88.2" y="68" fill="#9a4a68" font-size="2.1" font-family="system-ui, sans-serif">Yes 52</text>

  <rect x="85" y="70" width="2.4" height="2.4" rx="0.6" fill="#f59e0b"/>
  <text x="88.2" y="72" fill="#9a4a68" font-size="2.1" font-family="system-ui, sans-serif">Pending 34</text>

  <rect x="85" y="74" width="2.4" height="2.4" rx="0.6" fill="#d6336c"/>
  <text x="88.2" y="76" fill="#9a4a68" font-size="2.1" font-family="system-ui, sans-serif">No 0</text>

  <!-- Bottom strip: vendor highlights -->
  <rect x="21" y="80" width="77" height="16" rx="1.8" fill="white" stroke="#f1c6d3" stroke-width="0.4"/>
  <text x="23" y="85" fill="#6d1b3b" font-size="2.8" font-family="system-ui, sans-serif" font-weight="800">
    Vendor highlights
  </text>

  <!-- Vendor pills -->
  <rect x="23" y="87" width="21" height="6.5" rx="3.25" fill="#fff0f5" stroke="#f1c6d3" stroke-width="0.3"/>
  <text x="33.5" y="91.2" text-anchor="middle" fill="#9a4a68" font-size="2.2" font-family="system-ui, sans-serif">
    Photographer
  </text>

  <rect x="45.2" y="87" width="17" height="6.5" rx="3.25" fill="#ecfdf5" stroke="#bbf7d0" stroke-width="0.3"/>
  <text x="53.7" y="91.2" text-anchor="middle" fill="#065f46" font-size="2.2" font-family="system-ui, sans-serif">
    Catering
  </text>

  <rect x="63.2" y="87" width="15" height="6.5" rx="3.25" fill="#eff6ff" stroke="#bfdbfe" stroke-width="0.3"/>
  <text x="70.7" y="91.2" text-anchor="middle" fill="#1d4ed8" font-size="2.2" font-family="system-ui, sans-serif">
    Florals
  </text>

  <rect x="79.2" y="87" width="18.8" height="6.5" rx="3.25" fill="#fef3c7" stroke="#fde68a" stroke-width="0.3"/>
  <text x="88.6" y="91.2" text-anchor="middle" fill="#92400e" font-size="2.2" font-family="system-ui, sans-serif">
    Music
  </text>
</svg>
